<svg width="104" height="86" viewBox="0 0 104 86" fill="none" xmlns="http://www.w3.org/2000/svg">
<path d="M4.27253 80.169C2.66599 77.7473 -1.24707 74.1731 5.6859 68.5517C16.4653 64.6832 20.3309 65.9078 21.623 66.9789C23.0045 67.6652 26.312 69.6268 28.4895 71.9827C31.2114 74.9275 27.9913 82.7564 18.6457 83.442C11.1692 83.9906 10.7451 83.442 4.27253 80.169Z" fill="#9D0B40" stroke="#9D0B40" stroke-width="0.374755"/>
<path d="M20.2639 74.0745C23.5946 73.9569 22.2058 73.5156 30.2773 42.3834C32.9342 43.0906 36.3707 43.4043 35.8877 44.1127C35.8877 44.1127 28.9206 77.3332 28.391 76.2239C27.8614 75.1147 16.9332 74.1922 20.2639 74.0745Z" fill="#9D0B40" stroke="#9D0B40" stroke-width="0.404156"/>
<path d="M28.1157 42.3582L36.0428 43.9113L50.7283 46.2207L52.069 39.8605L29.4564 35.998L28.1157 42.3582Z" fill="#9D0B40" stroke="#9D0B40" stroke-width="0.374755"/>
<path d="M30.53 29.1452L32.1996 21.7146L54.7085 25.1571L53.039 32.5876L30.53 29.1452Z" fill="#9D0B40" stroke="#9D0B40" stroke-width="0.374755"/>
<path d="M58.4999 1.50013C51.9999 -1.89133 39.9999 6.49957 36.9999 21.9999L45.9999 24.0006C46.9993 23.1261 46.2514 14.9487 48.4999 13C51.3106 10.5641 53.41 11 54.9999 11C60.9031 11 67.5032 33.569 72.4999 43.9997L82.4999 39.9997L80.4999 35.4997L77.8855 29.4997C77.8855 29.4997 69.9998 7.50037 58.4999 1.50013Z" fill="#9D0B40" stroke="#9D0B40" stroke-width="0.374755"/>
<path d="M88.6086 57.8657L78.1086 61.9281L85.7578 80.4715L102.609 85.3657L93.1086 66.8657L88.6086 57.8657Z" fill="#9D0B40" stroke="#9D0B40" stroke-width="0.463585"/>
<path d="M72.3905 66.0398L70 59.9969L93.0162 50L95.1086 55.5797L72.3905 66.0398Z" fill="#9D0B40" stroke="#9D0B40" stroke-width="0.464974"/>
<path d="M64.0196 48.12L67.2641 54.9121L89.5558 44.9338L86.5836 38.1401L64.0196 48.12Z" fill="#9D0B40" stroke="#9D0B40" stroke-width="0.424606"/>
</svg>
