<svg width="620" height="124" viewBox="0 0 620 124" fill="none" xmlns="http://www.w3.org/2000/svg">
<path d="M5.70225 115.111C3.39383 111.631 -2.22878 106.495 7.7331 98.4181C23.2219 92.8595 28.7763 94.6191 30.6328 96.1581C32.6179 97.1443 37.3704 99.9629 40.4992 103.348C44.4103 107.579 39.7834 118.829 26.3548 119.814C15.6119 120.602 15.0026 119.814 5.70225 115.111Z" fill="#9D0B40" stroke="#9D0B40" stroke-width="0.538481"/>
<path d="M28.6799 106.354C33.4657 106.185 31.4703 105.551 43.068 60.8178C46.8856 61.8339 51.8235 62.2847 51.1296 63.3025C51.1296 63.3025 41.1187 111.037 40.3577 109.443C39.5967 107.849 23.8941 106.523 28.6799 106.354Z" fill="#9D0B40" stroke="#9D0B40" stroke-width="0.580725"/>
<path d="M39.962 60.7815L51.3523 63.013L72.4538 66.3314L74.3802 57.1925L41.8884 51.6426L39.962 60.7815Z" fill="#9D0B40" stroke="#9D0B40" stroke-width="0.538481"/>
<path d="M43.4312 41.7959L45.8303 31.1191L78.173 36.0654L75.774 46.7422L43.4312 41.7959Z" fill="#9D0B40" stroke="#9D0B40" stroke-width="0.538481"/>
<path d="M83.6208 2.07295C74.2811 -2.8002 57.0384 9.25657 52.7278 31.5287L65.6598 34.4035C67.0957 33.147 66.0211 21.397 69.252 18.5969C73.2906 15.0969 76.3071 15.7232 78.5917 15.7232C87.0738 15.7232 96.5575 48.1523 103.737 63.14L118.106 57.3924L115.232 50.9264L111.476 42.3052C111.476 42.3052 100.145 10.6946 83.6208 2.07295Z" fill="#9D0B40" stroke="#9D0B40" stroke-width="0.538481"/>
<path d="M126.884 83.0635L111.796 88.9006L122.787 115.545L147 122.578L133.35 95.9954L126.884 83.0635Z" fill="#9D0B40" stroke="#9D0B40" stroke-width="0.666119"/>
<path d="M103.58 94.8091L100.145 86.1262L133.217 71.7617L136.223 79.7791L103.58 94.8091Z" fill="#9D0B40" stroke="#9D0B40" stroke-width="0.668115"/>
<path d="M91.5519 69.0602L96.2138 78.8195L128.245 64.482L123.974 54.7202L91.5519 69.0602Z" fill="#9D0B40" stroke="#9D0B40" stroke-width="0.61011"/>
<path d="M162.408 110.864C158.52 110.864 155.688 109.592 153.912 107.048C152.184 104.504 151.32 100.976 151.32 96.464V74.288H161.904V95.096C161.904 97.688 162.264 99.464 162.984 100.424C163.704 101.384 164.832 101.864 166.368 101.864C167.712 101.864 168.84 101.552 169.752 100.928C170.664 100.304 171.648 99.296 172.704 97.904V74.288H183.288V110H174.648L173.856 105.032H173.64C172.104 106.856 170.448 108.296 168.672 109.352C166.944 110.36 164.856 110.864 162.408 110.864ZM205.346 110.864C203.138 110.864 201.122 110.432 199.298 109.568C197.522 108.704 195.986 107.48 194.69 105.896C193.442 104.264 192.458 102.296 191.738 99.992C191.066 97.688 190.73 95.072 190.73 92.144C190.73 89.216 191.138 86.6 191.954 84.296C192.818 81.992 193.922 80.048 195.266 78.464C196.658 76.832 198.242 75.584 200.018 74.72C201.842 73.856 203.69 73.424 205.562 73.424C207.578 73.424 209.234 73.76 210.53 74.432C211.826 75.104 213.098 76.016 214.346 77.168L213.914 71.696V59.528H224.498V110H215.858L215.138 106.472H214.85C213.602 107.72 212.138 108.776 210.458 109.64C208.778 110.456 207.074 110.864 205.346 110.864ZM208.082 102.224C209.234 102.224 210.266 101.984 211.178 101.504C212.138 101.024 213.05 100.184 213.914 98.984V84.368C212.954 83.504 211.97 82.904 210.962 82.568C209.954 82.232 208.97 82.064 208.01 82.064C206.33 82.064 204.842 82.88 203.546 84.512C202.25 86.096 201.602 88.592 201.602 92C201.602 95.552 202.154 98.144 203.258 99.776C204.41 101.408 206.018 102.224 208.082 102.224ZM233.875 110V74.288H244.459V110H233.875ZM239.131 69.032C237.355 69.032 235.891 68.528 234.739 67.52C233.587 66.464 233.011 65.12 233.011 63.488C233.011 61.856 233.587 60.536 234.739 59.528C235.891 58.52 237.355 58.016 239.131 58.016C240.955 58.016 242.419 58.52 243.523 59.528C244.675 60.536 245.251 61.856 245.251 63.488C245.251 65.12 244.675 66.464 243.523 67.52C242.419 68.528 240.955 69.032 239.131 69.032ZM269.11 110.864C266.854 110.864 264.67 110.456 262.558 109.64C260.446 108.776 258.574 107.552 256.942 105.968C255.358 104.384 254.086 102.44 253.126 100.136C252.166 97.784 251.686 95.12 251.686 92.144C251.686 89.168 252.166 86.528 253.126 84.224C254.086 81.872 255.358 79.904 256.942 78.32C258.574 76.736 260.446 75.536 262.558 74.72C264.67 73.856 266.854 73.424 269.11 73.424C271.366 73.424 273.526 73.856 275.59 74.72C277.702 75.536 279.55 76.736 281.134 78.32C282.766 79.904 284.062 81.872 285.022 84.224C285.982 86.528 286.462 89.168 286.462 92.144C286.462 95.12 285.982 97.784 285.022 100.136C284.062 102.44 282.766 104.384 281.134 105.968C279.55 107.552 277.702 108.776 275.59 109.64C273.526 110.456 271.366 110.864 269.11 110.864ZM269.11 102.296C271.27 102.296 272.902 101.384 274.006 99.56C275.11 97.736 275.662 95.264 275.662 92.144C275.662 89.024 275.11 86.552 274.006 84.728C272.902 82.904 271.27 81.992 269.11 81.992C266.902 81.992 265.246 82.904 264.142 84.728C263.086 86.552 262.558 89.024 262.558 92.144C262.558 95.264 263.086 97.736 264.142 99.56C265.246 101.384 266.902 102.296 269.11 102.296ZM299.501 110V71.984H286.613V63.056H323.045V71.984H310.157V110H299.501ZM333.86 110.864C332.228 110.864 330.74 110.576 329.396 110C328.1 109.472 326.996 108.728 326.084 107.768C325.172 106.76 324.452 105.608 323.924 104.312C323.444 103.016 323.204 101.6 323.204 100.064C323.204 96.32 324.788 93.392 327.956 91.28C331.124 89.168 336.236 87.752 343.292 87.032C343.196 85.448 342.716 84.2 341.852 83.288C341.036 82.328 339.644 81.848 337.676 81.848C336.14 81.848 334.604 82.136 333.068 82.712C331.58 83.288 329.972 84.08 328.244 85.088L324.428 78.104C326.732 76.712 329.132 75.584 331.628 74.72C334.172 73.856 336.86 73.424 339.692 73.424C344.3 73.424 347.804 74.744 350.204 77.384C352.652 79.976 353.876 84.032 353.876 89.552V110H345.236L344.516 106.328H344.228C342.692 107.672 341.084 108.776 339.404 109.64C337.724 110.456 335.876 110.864 333.86 110.864ZM337.46 102.656C338.66 102.656 339.692 102.392 340.556 101.864C341.42 101.336 342.332 100.592 343.292 99.632V93.368C339.548 93.896 336.956 94.664 335.516 95.672C334.076 96.68 333.356 97.88 333.356 99.272C333.356 100.424 333.716 101.288 334.436 101.864C335.204 102.392 336.212 102.656 337.46 102.656ZM362.828 123.248V74.288H371.468L372.188 77.816H372.476C373.868 76.568 375.428 75.536 377.156 74.72C378.932 73.856 380.756 73.424 382.628 73.424C384.788 73.424 386.732 73.856 388.46 74.72C390.188 75.584 391.652 76.808 392.852 78.392C394.052 79.976 394.964 81.896 395.588 84.152C396.26 86.36 396.596 88.832 396.596 91.568C396.596 94.64 396.164 97.376 395.3 99.776C394.484 102.128 393.356 104.144 391.916 105.824C390.524 107.456 388.916 108.704 387.092 109.568C385.316 110.432 383.468 110.864 381.548 110.864C380.012 110.864 378.524 110.552 377.084 109.928C375.644 109.256 374.3 108.32 373.052 107.12L373.412 112.808V123.248H362.828ZM379.1 102.224C380.924 102.224 382.484 101.408 383.78 99.776C385.076 98.096 385.724 95.408 385.724 91.712C385.724 85.28 383.66 82.064 379.532 82.064C377.468 82.064 375.428 83.144 373.412 85.304V99.92C374.372 100.784 375.332 101.384 376.292 101.72C377.252 102.056 378.188 102.224 379.1 102.224Z" fill="black"/>
</svg>
