<svg width="294" height="207" viewBox="0 0 294 207" fill="none" xmlns="http://www.w3.org/2000/svg">
<path d="M78.7023 115.111C76.3938 111.631 70.7712 106.495 80.7331 98.4181C96.2219 92.8595 101.776 94.6191 103.633 96.1581C105.618 97.1443 110.37 99.9629 113.499 103.348C117.41 107.579 112.783 118.829 99.3548 119.814C88.6119 120.602 88.0026 119.814 78.7023 115.111Z" fill="#9D0B40" stroke="#9D0B40" stroke-width="0.538481"/>
<path d="M101.68 106.354C106.466 106.185 104.47 105.551 116.068 60.8175C119.886 61.8337 124.824 62.2844 124.13 63.3023C124.13 63.3023 114.119 111.036 113.358 109.443C112.597 107.849 96.8941 106.523 101.68 106.354Z" fill="#9D0B40" stroke="#9D0B40" stroke-width="0.580725"/>
<path d="M112.962 60.7817L124.352 63.0133L145.454 66.3317L147.38 57.1928L114.888 51.6428L112.962 60.7817Z" fill="#9D0B40" stroke="#9D0B40" stroke-width="0.538481"/>
<path d="M116.431 41.7962L118.83 31.1193L151.173 36.0657L148.774 46.7425L116.431 41.7962Z" fill="#9D0B40" stroke="#9D0B40" stroke-width="0.538481"/>
<path d="M156.621 2.07295C147.281 -2.8002 130.038 9.25657 125.728 31.5287L138.66 34.4035C140.096 33.147 139.021 21.397 142.252 18.5969C146.291 15.0969 149.307 15.7232 151.592 15.7232C160.074 15.7232 169.557 48.1523 176.737 63.14L191.106 57.3924L188.232 50.9264L184.476 42.3052C184.476 42.3052 173.145 10.6946 156.621 2.07295Z" fill="#9D0B40" stroke="#9D0B40" stroke-width="0.538481"/>
<path d="M199.884 83.0637L184.796 88.9008L195.787 115.546L220 122.578L206.35 95.9957L199.884 83.0637Z" fill="#9D0B40" stroke="#9D0B40" stroke-width="0.666119"/>
<path d="M176.58 94.8093L173.145 86.1264L206.217 71.762L209.223 79.7793L176.58 94.8093Z" fill="#9D0B40" stroke="#9D0B40" stroke-width="0.668115"/>
<path d="M164.552 69.0602L169.214 78.8195L201.245 64.482L196.974 54.7202L164.552 69.0602Z" fill="#9D0B40" stroke="#9D0B40" stroke-width="0.61011"/>
<path d="M13.536 194.864C11.856 194.864 10.344 194.576 9 194C7.656 193.376 6.504 192.56 5.544 191.552C4.632 190.544 3.936 189.368 3.456 188.024C2.976 186.68 2.736 185.264 2.736 183.776C2.736 180.032 4.272 177.104 7.344 174.992C10.416 172.832 15.408 171.392 22.32 170.672C22.032 168.176 20.352 166.928 17.28 166.928C15.984 166.928 14.616 167.192 13.176 167.72C11.736 168.2 10.08 168.944 8.208 169.952L3.888 161.888C6.432 160.352 9 159.176 11.592 158.36C14.184 157.544 16.896 157.136 19.728 157.136C24.384 157.136 28.032 158.48 30.672 161.168C33.36 163.808 34.704 168.08 34.704 173.984V194H24.624L23.76 190.544H23.472C22.032 191.84 20.496 192.896 18.864 193.712C17.28 194.48 15.504 194.864 13.536 194.864ZM17.856 185.36C18.864 185.36 19.68 185.144 20.304 184.712C20.976 184.232 21.648 183.632 22.32 182.912V178.016C19.344 178.448 17.304 179.096 16.2 179.96C15.096 180.824 14.544 181.76 14.544 182.768C14.544 184.496 15.648 185.36 17.856 185.36ZM53.7216 194.864C51.7536 194.864 50.0496 194.528 48.6096 193.856C47.2176 193.136 46.0656 192.152 45.1536 190.904C44.2416 189.608 43.5696 188.072 43.1376 186.296C42.7056 184.472 42.4896 182.432 42.4896 180.176V158H54.8736V178.592C54.8736 180.896 55.1616 182.432 55.7376 183.2C56.3136 183.968 57.2256 184.352 58.4736 184.352C59.6256 184.352 60.5616 184.112 61.2816 183.632C62.0496 183.152 62.8416 182.336 63.6576 181.184V158H76.0416V194H65.9616L65.0976 189.248H64.8096C63.3696 190.976 61.7616 192.344 59.9856 193.352C58.2576 194.36 56.1696 194.864 53.7216 194.864ZM97.5066 194.864C95.2506 194.864 93.2106 194.432 91.3866 193.568C89.6106 192.704 88.0746 191.456 86.7786 189.824C85.5306 188.192 84.5466 186.224 83.8266 183.92C83.1546 181.568 82.8186 178.928 82.8186 176C82.8186 173.072 83.2266 170.432 84.0426 168.08C84.9066 165.728 86.0106 163.76 87.3546 162.176C88.7466 160.544 90.3306 159.296 92.1066 158.432C93.8826 157.568 95.6826 157.136 97.5066 157.136C99.4746 157.136 101.083 157.472 102.331 158.144C103.579 158.768 104.755 159.632 105.859 160.736L105.427 155.552V143.888H117.811V194H107.731L106.867 190.688H106.579C105.331 191.936 103.891 192.944 102.259 193.712C100.675 194.48 99.0906 194.864 97.5066 194.864ZM100.819 184.784C101.779 184.784 102.619 184.616 103.339 184.28C104.059 183.896 104.755 183.2 105.427 182.192V168.944C104.707 168.272 103.915 167.816 103.051 167.576C102.187 167.336 101.347 167.216 100.531 167.216C99.2346 167.216 98.0586 167.864 97.0026 169.16C95.9946 170.456 95.4906 172.688 95.4906 175.856C95.4906 179.12 95.9466 181.424 96.8586 182.768C97.8186 184.112 99.1386 184.784 100.819 184.784ZM126.168 194V158H138.552V194H126.168ZM132.36 153.536C130.344 153.536 128.688 152.96 127.392 151.808C126.096 150.656 125.448 149.168 125.448 147.344C125.448 145.52 126.096 144.032 127.392 142.88C128.688 141.728 130.344 141.152 132.36 141.152C134.376 141.152 136.032 141.728 137.328 142.88C138.624 144.032 139.272 145.52 139.272 147.344C139.272 149.168 138.624 150.656 137.328 151.808C136.032 152.96 134.376 153.536 132.36 153.536ZM162.894 194.864C160.59 194.864 158.358 194.456 156.198 193.64C154.038 192.776 152.118 191.552 150.438 189.968C148.806 188.336 147.486 186.344 146.478 183.992C145.518 181.64 145.038 178.976 145.038 176C145.038 173.024 145.518 170.36 146.478 168.008C147.486 165.656 148.806 163.688 150.438 162.104C152.118 160.472 154.038 159.248 156.198 158.432C158.358 157.568 160.59 157.136 162.894 157.136C165.198 157.136 167.406 157.568 169.518 158.432C171.678 159.248 173.574 160.472 175.206 162.104C176.886 163.688 178.23 165.656 179.238 168.008C180.246 170.36 180.75 173.024 180.75 176C180.75 178.976 180.246 181.64 179.238 183.992C178.23 186.344 176.886 188.336 175.206 189.968C173.574 191.552 171.678 192.776 169.518 193.64C167.406 194.456 165.198 194.864 162.894 194.864ZM162.894 184.928C164.766 184.928 166.086 184.136 166.854 182.552C167.67 180.92 168.078 178.736 168.078 176C168.078 173.264 167.67 171.104 166.854 169.52C166.086 167.888 164.766 167.072 162.894 167.072C161.022 167.072 159.678 167.888 158.862 169.52C158.094 171.104 157.71 173.264 157.71 176C157.71 178.736 158.094 180.92 158.862 182.552C159.678 184.136 161.022 184.928 162.894 184.928ZM199.852 194.864C197.5 194.864 195.484 194.528 193.804 193.856C192.172 193.136 190.804 192.128 189.7 190.832C188.644 189.536 187.852 188 187.324 186.224C186.844 184.4 186.604 182.384 186.604 180.176V167.648H181.852V158.432L187.324 158L188.764 148.64H198.988V158H207.196V167.648H198.988V179.96C198.988 181.976 199.42 183.368 200.284 184.136C201.148 184.856 202.156 185.216 203.308 185.216C203.884 185.216 204.436 185.168 204.964 185.072C205.54 184.928 206.044 184.784 206.476 184.64L208.348 193.568C207.388 193.856 206.236 194.144 204.892 194.432C203.548 194.72 201.868 194.864 199.852 194.864ZM221.802 194.864C220.122 194.864 218.61 194.576 217.266 194C215.922 193.376 214.77 192.56 213.81 191.552C212.898 190.544 212.202 189.368 211.722 188.024C211.242 186.68 211.002 185.264 211.002 183.776C211.002 180.032 212.538 177.104 215.61 174.992C218.682 172.832 223.674 171.392 230.586 170.672C230.298 168.176 228.618 166.928 225.546 166.928C224.25 166.928 222.882 167.192 221.442 167.72C220.002 168.2 218.346 168.944 216.474 169.952L212.154 161.888C214.698 160.352 217.266 159.176 219.858 158.36C222.45 157.544 225.162 157.136 227.994 157.136C232.65 157.136 236.298 158.48 238.938 161.168C241.626 163.808 242.97 168.08 242.97 173.984V194H232.89L232.026 190.544H231.738C230.298 191.84 228.762 192.896 227.13 193.712C225.546 194.48 223.77 194.864 221.802 194.864ZM226.122 185.36C227.13 185.36 227.946 185.144 228.57 184.712C229.242 184.232 229.914 183.632 230.586 182.912V178.016C227.61 178.448 225.57 179.096 224.466 179.96C223.362 180.824 222.81 181.76 222.81 182.768C222.81 184.496 223.914 185.36 226.122 185.36ZM251.043 206.672V158H261.123L261.987 161.312H262.275C263.619 160.064 265.131 159.056 266.811 158.288C268.491 157.52 270.243 157.136 272.067 157.136C274.179 157.136 276.099 157.568 277.827 158.432C279.555 159.296 281.019 160.52 282.219 162.104C283.467 163.688 284.403 165.608 285.027 167.864C285.699 170.12 286.035 172.64 286.035 175.424C286.035 178.544 285.603 181.304 284.739 183.704C283.923 186.104 282.819 188.144 281.427 189.824C280.035 191.456 278.427 192.704 276.603 193.568C274.827 194.432 272.979 194.864 271.059 194.864C268.083 194.864 265.395 193.664 262.995 191.264L263.427 196.736V206.672H251.043ZM268.035 184.784C269.475 184.784 270.723 184.112 271.779 182.768C272.835 181.424 273.363 179.024 273.363 175.568C273.363 172.592 272.931 170.456 272.067 169.16C271.251 167.864 270.003 167.216 268.323 167.216C267.363 167.216 266.499 167.408 265.731 167.792C265.011 168.176 264.243 168.848 263.427 169.808V183.056C264.147 183.728 264.891 184.184 265.659 184.424C266.427 184.664 267.219 184.784 268.035 184.784Z" fill="black"/>
</svg>
