<svg width="654" height="152" viewBox="0 0 654 152" fill="none" xmlns="http://www.w3.org/2000/svg">
<path d="M6.7973 141.87C3.9513 137.58 -2.98069 131.248 9.30108 121.29C28.3969 114.437 35.2448 116.606 37.5336 118.504C39.981 119.72 45.8402 123.195 49.6977 127.368C54.5195 132.585 48.8152 146.454 32.2593 147.668C19.0147 148.64 18.2635 147.668 6.7973 141.87Z" fill="#9D0B40" stroke="#9D0B40" stroke-width="0.66388"/>
<path d="M35.126 131.074C41.0263 130.866 38.5661 130.084 52.8647 74.9333C57.5714 76.1861 63.6592 76.7418 62.8036 77.9967C62.8036 77.9967 50.4614 136.847 49.5232 134.882C48.585 132.917 29.2257 131.283 35.126 131.074Z" fill="#9D0B40" stroke="#9D0B40" stroke-width="0.715963"/>
<path d="M49.0355 74.8889L63.0782 77.6401L89.0938 81.7314L91.4688 70.4642L51.4105 63.6218L49.0355 74.8889Z" fill="#9D0B40" stroke="#9D0B40" stroke-width="0.66388"/>
<path d="M53.3124 51.4822L56.2702 38.3189L96.1447 44.4172L93.1871 57.5804L53.3124 51.4822Z" fill="#9D0B40" stroke="#9D0B40" stroke-width="0.66388"/>
<path d="M102.861 2.50836C91.3466 -3.49963 70.0886 11.3649 64.774 38.8237L80.7176 42.3679C82.4879 40.8189 81.163 26.3325 85.1463 22.8804C90.1254 18.5653 93.8445 19.3374 96.6611 19.3374C107.119 19.3374 118.811 59.3185 127.662 77.7965L145.377 70.7105L141.834 62.7387L137.203 52.1097C137.203 52.1097 123.233 13.1378 102.861 2.50836Z" fill="#9D0B40" stroke="#9D0B40" stroke-width="0.66388"/>
<path d="M156.199 102.36L137.598 109.556L151.149 142.406L181 151.076L164.171 118.303L156.199 102.36Z" fill="#9D0B40" stroke="#9D0B40" stroke-width="0.821242"/>
<path d="M127.468 116.841L123.234 106.136L164.007 88.4263L167.714 98.3107L127.468 116.841Z" fill="#9D0B40" stroke="#9D0B40" stroke-width="0.823703"/>
<path d="M112.639 85.0954L118.387 97.1275L157.877 79.4511L152.611 67.416L112.639 85.0954Z" fill="#9D0B40" stroke="#9D0B40" stroke-width="0.75219"/>
<path d="M196.408 118.846C192.376 118.846 189.472 117.526 187.696 114.886C185.92 112.198 185.032 108.622 185.032 104.158V81.9819H197.416V102.574C197.416 104.59 197.68 106.054 198.208 106.966C198.784 107.878 199.888 108.334 201.52 108.334C202.576 108.334 203.488 108.142 204.256 107.758C205.072 107.326 205.96 106.462 206.92 105.166V81.9819H219.304V117.982H209.224L208.36 113.23H208.072C206.536 114.958 204.832 116.326 202.96 117.334C201.136 118.342 198.952 118.846 196.408 118.846ZM242.244 118.846C239.94 118.846 237.852 118.414 235.98 117.55C234.156 116.686 232.596 115.438 231.3 113.806C230.004 112.174 228.996 110.206 228.276 107.902C227.556 105.55 227.196 102.91 227.196 99.9819C227.196 97.0539 227.628 94.4139 228.492 92.0619C229.356 89.7099 230.484 87.7419 231.876 86.1579C233.268 84.5259 234.876 83.2779 236.7 82.4139C238.524 81.5499 240.372 81.1179 242.244 81.1179C244.164 81.1179 245.772 81.4299 247.068 82.0539C248.364 82.6779 249.564 83.5659 250.668 84.7179H250.956L250.38 79.5339V67.8699H262.764V117.982H252.684L251.82 114.67H251.532C250.284 115.918 248.82 116.926 247.14 117.694C245.508 118.462 243.876 118.846 242.244 118.846ZM245.484 108.766C246.492 108.766 247.38 108.598 248.148 108.262C248.964 107.878 249.708 107.182 250.38 106.174V92.9259C249.66 92.2539 248.892 91.7979 248.076 91.5579C247.308 91.3179 246.492 91.1979 245.628 91.1979C244.092 91.1979 242.748 91.8459 241.596 93.1419C240.444 94.4379 239.868 96.6699 239.868 99.8379C239.868 103.102 240.348 105.406 241.308 106.75C242.316 108.094 243.708 108.766 245.484 108.766ZM286.352 117.982V91.6299H272.672V81.9819H298.736V117.982H286.352ZM292.112 77.0859C289.808 77.0859 287.912 76.4379 286.424 75.1419C284.936 73.7979 284.192 72.0459 284.192 69.8859C284.192 67.7259 284.936 65.9739 286.424 64.6299C287.912 63.2379 289.808 62.5419 292.112 62.5419C294.416 62.5419 296.312 63.2379 297.8 64.6299C299.288 65.9739 300.032 67.7259 300.032 69.8859C300.032 72.0459 299.288 73.7979 297.8 75.1419C296.312 76.4379 294.416 77.0859 292.112 77.0859ZM332.116 118.846C329.716 118.846 327.388 118.438 325.132 117.622C322.924 116.758 320.956 115.534 319.228 113.95C317.5 112.318 316.108 110.326 315.052 107.974C314.044 105.622 313.54 102.958 313.54 99.9819C313.54 97.0059 314.044 94.3419 315.052 91.9899C316.108 89.6379 317.5 87.6699 319.228 86.0859C320.956 84.4539 322.924 83.2299 325.132 82.4139C327.388 81.5499 329.716 81.1179 332.116 81.1179C334.468 81.1179 336.748 81.5499 338.956 82.4139C341.212 83.2299 343.204 84.4539 344.932 86.0859C346.66 87.6699 348.052 89.6379 349.108 91.9899C350.164 94.3419 350.692 97.0059 350.692 99.9819C350.692 102.958 350.164 105.622 349.108 107.974C348.052 110.326 346.66 112.318 344.932 113.95C343.204 115.534 341.212 116.758 338.956 117.622C336.748 118.438 334.468 118.846 332.116 118.846ZM332.116 108.91C334.228 108.91 335.74 108.118 336.652 106.534C337.564 104.902 338.02 102.718 338.02 99.9819C338.02 97.2459 337.564 95.0859 336.652 93.5019C335.74 91.8699 334.228 91.0539 332.116 91.0539C330.004 91.0539 328.492 91.8699 327.58 93.5019C326.668 95.0859 326.212 97.2459 326.212 99.9819C326.212 102.718 326.668 104.902 327.58 106.534C328.492 108.118 330.004 108.91 332.116 108.91ZM369.096 117.982V81.5499H355.632V71.1819H394.944V81.5499H381.48V117.982H369.096ZM412.411 118.846C410.539 118.846 408.883 118.558 407.443 117.982C406.003 117.358 404.779 116.542 403.771 115.534C402.763 114.526 401.995 113.35 401.467 112.006C400.987 110.662 400.747 109.246 400.747 107.758C400.747 105.742 401.155 103.966 401.971 102.43C402.835 100.894 404.155 99.5979 405.931 98.5419C407.755 97.4379 410.107 96.5739 412.987 95.9499C415.867 95.3259 419.371 94.8939 423.499 94.6539C423.259 93.3579 422.539 92.4219 421.339 91.8459C420.187 91.2219 418.603 90.9099 416.587 90.9099C415.051 90.9099 413.467 91.1739 411.835 91.7019C410.251 92.1819 408.379 92.9259 406.219 93.9339L401.899 85.8699C404.635 84.3339 407.419 83.1579 410.251 82.3419C413.083 81.5259 416.011 81.1179 419.035 81.1179C421.579 81.1179 423.883 81.4539 425.947 82.1259C428.059 82.7499 429.835 83.7579 431.275 85.1499C432.763 86.4939 433.891 88.2459 434.659 90.4059C435.475 92.5179 435.883 95.0379 435.883 97.9659V117.982H425.803L424.939 114.238H424.651C422.875 115.534 420.955 116.638 418.891 117.55C416.827 118.414 414.667 118.846 412.411 118.846ZM416.443 109.342C417.883 109.342 419.179 109.078 420.331 108.55C421.483 107.974 422.539 107.326 423.499 106.606V101.998C421.291 102.094 419.467 102.286 418.027 102.574C416.635 102.814 415.531 103.15 414.715 103.582C413.899 104.014 413.323 104.494 412.987 105.022C412.699 105.55 412.555 106.126 412.555 106.75C412.555 108.478 413.851 109.342 416.443 109.342ZM444.639 130.654V81.9819H454.719L455.583 85.2939H455.871C457.263 84.0459 458.823 83.0379 460.551 82.2699C462.327 81.5019 464.127 81.1179 465.951 81.1179C468.111 81.1179 470.079 81.5499 471.855 82.4139C473.631 83.2779 475.119 84.5019 476.319 86.0859C477.567 87.6699 478.527 89.5899 479.199 91.8459C479.871 94.1019 480.207 96.6219 480.207 99.4059C480.207 102.526 479.775 105.286 478.911 107.686C478.047 110.086 476.895 112.126 475.455 113.806C474.063 115.438 472.431 116.686 470.559 117.55C468.735 118.414 466.839 118.846 464.871 118.846C461.847 118.846 459.135 117.646 456.735 115.246H456.447L457.023 120.718V130.654H444.639ZM461.919 108.766C462.687 108.766 463.407 108.622 464.079 108.334C464.751 107.998 465.327 107.47 465.807 106.75C466.335 106.03 466.743 105.094 467.031 103.942C467.367 102.742 467.535 101.278 467.535 99.5499C467.535 96.5739 467.079 94.4379 466.167 93.1419C465.303 91.8459 463.983 91.1979 462.207 91.1979C461.247 91.1979 460.359 91.3899 459.543 91.7739C458.727 92.1579 457.887 92.8299 457.023 93.7899V107.038C457.791 107.71 458.583 108.166 459.399 108.406C460.263 108.646 461.103 108.766 461.919 108.766Z" fill="black"/>
</svg>
