<svg width="620" height="124" viewBox="0 0 620 124" fill="none" xmlns="http://www.w3.org/2000/svg">
<path d="M5.70225 115.111C3.39383 111.631 -2.22878 106.495 7.7331 98.4181C23.2219 92.8595 28.7763 94.6191 30.6328 96.1581C32.6179 97.1443 37.3704 99.9629 40.4992 103.348C44.4103 107.579 39.7834 118.829 26.3548 119.814C15.6119 120.602 15.0026 119.814 5.70225 115.111Z" fill="#9D0B40" stroke="#9D0B40" stroke-width="0.538481"/>
<path d="M28.6799 106.354C33.4657 106.185 31.4703 105.551 43.068 60.8178C46.8856 61.8339 51.8235 62.2847 51.1296 63.3025C51.1296 63.3025 41.1187 111.037 40.3577 109.443C39.5967 107.849 23.8941 106.523 28.6799 106.354Z" fill="#9D0B40" stroke="#9D0B40" stroke-width="0.580725"/>
<path d="M39.962 60.7815L51.3523 63.013L72.4538 66.3314L74.3802 57.1925L41.8884 51.6426L39.962 60.7815Z" fill="#9D0B40" stroke="#9D0B40" stroke-width="0.538481"/>
<path d="M43.4312 41.7959L45.8303 31.1191L78.173 36.0654L75.774 46.7422L43.4312 41.7959Z" fill="#9D0B40" stroke="#9D0B40" stroke-width="0.538481"/>
<path d="M83.6208 2.07295C74.2811 -2.8002 57.0384 9.25657 52.7278 31.5287L65.6598 34.4035C67.0957 33.147 66.0211 21.397 69.252 18.5969C73.2906 15.0969 76.3071 15.7232 78.5917 15.7232C87.0738 15.7232 96.5575 48.1523 103.737 63.14L118.106 57.3924L115.232 50.9264L111.476 42.3052C111.476 42.3052 100.145 10.6946 83.6208 2.07295Z" fill="#9D0B40" stroke="#9D0B40" stroke-width="0.538481"/>
<path d="M126.884 83.0635L111.796 88.9006L122.787 115.545L147 122.578L133.35 95.9954L126.884 83.0635Z" fill="#9D0B40" stroke="#9D0B40" stroke-width="0.666119"/>
<path d="M103.58 94.8091L100.145 86.1262L133.217 71.7617L136.223 79.7791L103.58 94.8091Z" fill="#9D0B40" stroke="#9D0B40" stroke-width="0.668115"/>
<path d="M91.5519 69.0602L96.2138 78.8195L128.245 64.482L123.974 54.7202L91.5519 69.0602Z" fill="#9D0B40" stroke="#9D0B40" stroke-width="0.61011"/>
<path d="M162.12 110.864C160.152 110.864 158.448 110.528 157.008 109.856C155.616 109.136 154.464 108.152 153.552 106.904C152.64 105.608 151.968 104.072 151.536 102.296C151.104 100.472 150.888 98.432 150.888 96.176V74H163.272V94.592C163.272 96.896 163.56 98.432 164.136 99.2C164.712 99.968 165.624 100.352 166.872 100.352C168.024 100.352 168.96 100.112 169.68 99.632C170.448 99.152 171.24 98.336 172.056 97.184V74H184.44V110H174.36L173.496 105.248H173.208C171.768 106.976 170.16 108.344 168.384 109.352C166.656 110.36 164.568 110.864 162.12 110.864ZM205.905 110.864C203.649 110.864 201.609 110.432 199.785 109.568C198.009 108.704 196.473 107.456 195.177 105.824C193.929 104.192 192.945 102.224 192.225 99.92C191.553 97.568 191.217 94.928 191.217 92C191.217 89.072 191.625 86.432 192.441 84.08C193.305 81.728 194.409 79.76 195.753 78.176C197.145 76.544 198.729 75.296 200.505 74.432C202.281 73.568 204.081 73.136 205.905 73.136C207.873 73.136 209.481 73.472 210.729 74.144C211.977 74.768 213.153 75.632 214.257 76.736L213.825 71.552V59.888H226.209V110H216.129L215.265 106.688H214.977C213.729 107.936 212.289 108.944 210.657 109.712C209.073 110.48 207.489 110.864 205.905 110.864ZM209.217 100.784C210.177 100.784 211.017 100.616 211.737 100.28C212.457 99.896 213.153 99.2 213.825 98.192V84.944C213.105 84.272 212.313 83.816 211.449 83.576C210.585 83.336 209.745 83.216 208.929 83.216C207.633 83.216 206.457 83.864 205.401 85.16C204.393 86.456 203.889 88.688 203.889 91.856C203.889 95.12 204.345 97.424 205.257 98.768C206.217 100.112 207.537 100.784 209.217 100.784ZM234.567 110V74H246.951V110H234.567ZM240.759 69.536C238.743 69.536 237.087 68.96 235.791 67.808C234.495 66.656 233.847 65.168 233.847 63.344C233.847 61.52 234.495 60.032 235.791 58.88C237.087 57.728 238.743 57.152 240.759 57.152C242.775 57.152 244.431 57.728 245.727 58.88C247.023 60.032 247.671 61.52 247.671 63.344C247.671 65.168 247.023 66.656 245.727 67.808C244.431 68.96 242.775 69.536 240.759 69.536ZM271.293 110.864C268.989 110.864 266.757 110.456 264.597 109.64C262.437 108.776 260.517 107.552 258.837 105.968C257.205 104.336 255.885 102.344 254.877 99.992C253.917 97.64 253.437 94.976 253.437 92C253.437 89.024 253.917 86.36 254.877 84.008C255.885 81.656 257.205 79.688 258.837 78.104C260.517 76.472 262.437 75.248 264.597 74.432C266.757 73.568 268.989 73.136 271.293 73.136C273.597 73.136 275.805 73.568 277.917 74.432C280.077 75.248 281.973 76.472 283.605 78.104C285.285 79.688 286.629 81.656 287.637 84.008C288.645 86.36 289.149 89.024 289.149 92C289.149 94.976 288.645 97.64 287.637 99.992C286.629 102.344 285.285 104.336 283.605 105.968C281.973 107.552 280.077 108.776 277.917 109.64C275.805 110.456 273.597 110.864 271.293 110.864ZM271.293 100.928C273.165 100.928 274.485 100.136 275.253 98.552C276.069 96.92 276.477 94.736 276.477 92C276.477 89.264 276.069 87.104 275.253 85.52C274.485 83.888 273.165 83.072 271.293 83.072C269.421 83.072 268.077 83.888 267.261 85.52C266.493 87.104 266.109 89.264 266.109 92C266.109 94.736 266.493 96.92 267.261 98.552C268.077 100.136 269.421 100.928 271.293 100.928ZM301.245 110V73.568H288.861V63.2H326.013V73.568H313.629V110H301.245ZM337.02 110.864C335.34 110.864 333.828 110.576 332.484 110C331.14 109.376 329.988 108.56 329.028 107.552C328.116 106.544 327.42 105.368 326.94 104.024C326.46 102.68 326.22 101.264 326.22 99.776C326.22 96.032 327.756 93.104 330.828 90.992C333.9 88.832 338.892 87.392 345.804 86.672C345.516 84.176 343.836 82.928 340.764 82.928C339.468 82.928 338.1 83.192 336.66 83.72C335.22 84.2 333.564 84.944 331.692 85.952L327.372 77.888C329.916 76.352 332.484 75.176 335.076 74.36C337.668 73.544 340.38 73.136 343.212 73.136C347.868 73.136 351.516 74.48 354.156 77.168C356.844 79.808 358.188 84.08 358.188 89.984V110H348.108L347.244 106.544H346.956C345.516 107.84 343.98 108.896 342.348 109.712C340.764 110.48 338.988 110.864 337.02 110.864ZM341.34 101.36C342.348 101.36 343.164 101.144 343.788 100.712C344.46 100.232 345.132 99.632 345.804 98.912V94.016C342.828 94.448 340.788 95.096 339.684 95.96C338.58 96.824 338.028 97.76 338.028 98.768C338.028 100.496 339.132 101.36 341.34 101.36ZM366.262 122.672V74H376.342L377.206 77.312H377.494C378.838 76.064 380.35 75.056 382.03 74.288C383.71 73.52 385.462 73.136 387.286 73.136C389.398 73.136 391.318 73.568 393.046 74.432C394.774 75.296 396.238 76.52 397.438 78.104C398.686 79.688 399.622 81.608 400.246 83.864C400.918 86.12 401.254 88.64 401.254 91.424C401.254 94.544 400.822 97.304 399.958 99.704C399.142 102.104 398.038 104.144 396.646 105.824C395.254 107.456 393.646 108.704 391.822 109.568C390.046 110.432 388.198 110.864 386.278 110.864C383.302 110.864 380.614 109.664 378.214 107.264L378.646 112.736V122.672H366.262ZM383.254 100.784C384.694 100.784 385.942 100.112 386.998 98.768C388.054 97.424 388.582 95.024 388.582 91.568C388.582 88.592 388.15 86.456 387.286 85.16C386.47 83.864 385.222 83.216 383.542 83.216C382.582 83.216 381.718 83.408 380.95 83.792C380.23 84.176 379.462 84.848 378.646 85.808V99.056C379.366 99.728 380.11 100.184 380.878 100.424C381.646 100.664 382.438 100.784 383.254 100.784Z" fill="black"/>
</svg>
