<svg width="294" height="205" viewBox="0 0 294 205" fill="none" xmlns="http://www.w3.org/2000/svg">
<path d="M13.536 192.864C11.856 192.864 10.344 192.576 9 192C7.656 191.376 6.504 190.56 5.544 189.552C4.632 188.544 3.936 187.368 3.456 186.024C2.976 184.68 2.736 183.264 2.736 181.776C2.736 178.032 4.272 175.104 7.344 172.992C10.416 170.832 15.408 169.392 22.32 168.672C22.032 166.176 20.352 164.928 17.28 164.928C15.984 164.928 14.616 165.192 13.176 165.72C11.736 166.2 10.08 166.944 8.208 167.952L3.888 159.888C6.432 158.352 9 157.176 11.592 156.36C14.184 155.544 16.896 155.136 19.728 155.136C24.384 155.136 28.032 156.48 30.672 159.168C33.36 161.808 34.704 166.08 34.704 171.984V192H24.624L23.76 188.544H23.472C22.032 189.84 20.496 190.896 18.864 191.712C17.28 192.48 15.504 192.864 13.536 192.864ZM17.856 183.36C18.864 183.36 19.68 183.144 20.304 182.712C20.976 182.232 21.648 181.632 22.32 180.912V176.016C19.344 176.448 17.304 177.096 16.2 177.96C15.096 178.824 14.544 179.76 14.544 180.768C14.544 182.496 15.648 183.36 17.856 183.36ZM53.7216 192.864C51.7536 192.864 50.0496 192.528 48.6096 191.856C47.2176 191.136 46.0656 190.152 45.1536 188.904C44.2416 187.608 43.5696 186.072 43.1376 184.296C42.7056 182.472 42.4896 180.432 42.4896 178.176V156H54.8736V176.592C54.8736 178.896 55.1616 180.432 55.7376 181.2C56.3136 181.968 57.2256 182.352 58.4736 182.352C59.6256 182.352 60.5616 182.112 61.2816 181.632C62.0496 181.152 62.8416 180.336 63.6576 179.184V156H76.0416V192H65.9616L65.0976 187.248H64.8096C63.3696 188.976 61.7616 190.344 59.9856 191.352C58.2576 192.36 56.1696 192.864 53.7216 192.864ZM97.5066 192.864C95.2506 192.864 93.2106 192.432 91.3866 191.568C89.6106 190.704 88.0746 189.456 86.7786 187.824C85.5306 186.192 84.5466 184.224 83.8266 181.92C83.1546 179.568 82.8186 176.928 82.8186 174C82.8186 171.072 83.2266 168.432 84.0426 166.08C84.9066 163.728 86.0106 161.76 87.3546 160.176C88.7466 158.544 90.3306 157.296 92.1066 156.432C93.8826 155.568 95.6826 155.136 97.5066 155.136C99.4746 155.136 101.083 155.472 102.331 156.144C103.579 156.768 104.755 157.632 105.859 158.736L105.427 153.552V141.888H117.811V192H107.731L106.867 188.688H106.579C105.331 189.936 103.891 190.944 102.259 191.712C100.675 192.48 99.0906 192.864 97.5066 192.864ZM100.819 182.784C101.779 182.784 102.619 182.616 103.339 182.28C104.059 181.896 104.755 181.2 105.427 180.192V166.944C104.707 166.272 103.915 165.816 103.051 165.576C102.187 165.336 101.347 165.216 100.531 165.216C99.2346 165.216 98.0586 165.864 97.0026 167.16C95.9946 168.456 95.4906 170.688 95.4906 173.856C95.4906 177.12 95.9466 179.424 96.8586 180.768C97.8186 182.112 99.1386 182.784 100.819 182.784ZM126.168 192V156H138.552V192H126.168ZM132.36 151.536C130.344 151.536 128.688 150.96 127.392 149.808C126.096 148.656 125.448 147.168 125.448 145.344C125.448 143.52 126.096 142.032 127.392 140.88C128.688 139.728 130.344 139.152 132.36 139.152C134.376 139.152 136.032 139.728 137.328 140.88C138.624 142.032 139.272 143.52 139.272 145.344C139.272 147.168 138.624 148.656 137.328 149.808C136.032 150.96 134.376 151.536 132.36 151.536ZM162.894 192.864C160.59 192.864 158.358 192.456 156.198 191.64C154.038 190.776 152.118 189.552 150.438 187.968C148.806 186.336 147.486 184.344 146.478 181.992C145.518 179.64 145.038 176.976 145.038 174C145.038 171.024 145.518 168.36 146.478 166.008C147.486 163.656 148.806 161.688 150.438 160.104C152.118 158.472 154.038 157.248 156.198 156.432C158.358 155.568 160.59 155.136 162.894 155.136C165.198 155.136 167.406 155.568 169.518 156.432C171.678 157.248 173.574 158.472 175.206 160.104C176.886 161.688 178.23 163.656 179.238 166.008C180.246 168.36 180.75 171.024 180.75 174C180.75 176.976 180.246 179.64 179.238 181.992C178.23 184.344 176.886 186.336 175.206 187.968C173.574 189.552 171.678 190.776 169.518 191.64C167.406 192.456 165.198 192.864 162.894 192.864ZM162.894 182.928C164.766 182.928 166.086 182.136 166.854 180.552C167.67 178.92 168.078 176.736 168.078 174C168.078 171.264 167.67 169.104 166.854 167.52C166.086 165.888 164.766 165.072 162.894 165.072C161.022 165.072 159.678 165.888 158.862 167.52C158.094 169.104 157.71 171.264 157.71 174C157.71 176.736 158.094 178.92 158.862 180.552C159.678 182.136 161.022 182.928 162.894 182.928ZM199.852 192.864C197.5 192.864 195.484 192.528 193.804 191.856C192.172 191.136 190.804 190.128 189.7 188.832C188.644 187.536 187.852 186 187.324 184.224C186.844 182.4 186.604 180.384 186.604 178.176V165.648H181.852V156.432L187.324 156L188.764 146.64H198.988V156H207.196V165.648H198.988V177.96C198.988 179.976 199.42 181.368 200.284 182.136C201.148 182.856 202.156 183.216 203.308 183.216C203.884 183.216 204.436 183.168 204.964 183.072C205.54 182.928 206.044 182.784 206.476 182.64L208.348 191.568C207.388 191.856 206.236 192.144 204.892 192.432C203.548 192.72 201.868 192.864 199.852 192.864ZM221.802 192.864C220.122 192.864 218.61 192.576 217.266 192C215.922 191.376 214.77 190.56 213.81 189.552C212.898 188.544 212.202 187.368 211.722 186.024C211.242 184.68 211.002 183.264 211.002 181.776C211.002 178.032 212.538 175.104 215.61 172.992C218.682 170.832 223.674 169.392 230.586 168.672C230.298 166.176 228.618 164.928 225.546 164.928C224.25 164.928 222.882 165.192 221.442 165.72C220.002 166.2 218.346 166.944 216.474 167.952L212.154 159.888C214.698 158.352 217.266 157.176 219.858 156.36C222.45 155.544 225.162 155.136 227.994 155.136C232.65 155.136 236.298 156.48 238.938 159.168C241.626 161.808 242.97 166.08 242.97 171.984V192H232.89L232.026 188.544H231.738C230.298 189.84 228.762 190.896 227.13 191.712C225.546 192.48 223.77 192.864 221.802 192.864ZM226.122 183.36C227.13 183.36 227.946 183.144 228.57 182.712C229.242 182.232 229.914 181.632 230.586 180.912V176.016C227.61 176.448 225.57 177.096 224.466 177.96C223.362 178.824 222.81 179.76 222.81 180.768C222.81 182.496 223.914 183.36 226.122 183.36ZM251.043 204.672V156H261.123L261.987 159.312H262.275C263.619 158.064 265.131 157.056 266.811 156.288C268.491 155.52 270.243 155.136 272.067 155.136C274.179 155.136 276.099 155.568 277.827 156.432C279.555 157.296 281.019 158.52 282.219 160.104C283.467 161.688 284.403 163.608 285.027 165.864C285.699 168.12 286.035 170.64 286.035 173.424C286.035 176.544 285.603 179.304 284.739 181.704C283.923 184.104 282.819 186.144 281.427 187.824C280.035 189.456 278.427 190.704 276.603 191.568C274.827 192.432 272.979 192.864 271.059 192.864C268.083 192.864 265.395 191.664 262.995 189.264L263.427 194.736V204.672H251.043ZM268.035 182.784C269.475 182.784 270.723 182.112 271.779 180.768C272.835 179.424 273.363 177.024 273.363 173.568C273.363 170.592 272.931 168.456 272.067 167.16C271.251 165.864 270.003 165.216 268.323 165.216C267.363 165.216 266.499 165.408 265.731 165.792C265.011 166.176 264.243 166.848 263.427 167.808V181.056C264.147 181.728 264.891 182.184 265.659 182.424C266.427 182.664 267.219 182.784 268.035 182.784Z" fill="black"/>
<path fill-rule="evenodd" clip-rule="evenodd" d="M211.997 103.265C212.108 108.664 208.485 113.471 203.385 114.694C202.546 114.897 201.685 115 200.822 115C197.973 115 195.813 113.907 194.968 113.478L192.71 112.34C191.266 111.604 189.819 110.871 188.372 110.141C178.367 105.106 171.505 101.684 164.239 98.0547C157.929 94.8999 151.411 91.6409 142.532 87.1851C140.252 86.0346 138.521 84.0284 137.717 81.6051C136.912 79.1819 137.1 76.5387 138.238 74.2533C138.797 73.1239 139.573 72.1159 140.522 71.2874C141.471 70.4588 142.574 69.8259 143.769 69.4252C144.963 69.0244 146.225 68.8636 147.482 68.9521C148.739 69.0405 149.966 69.3765 151.092 69.9406C159.952 74.39 166.47 77.6424 172.773 80.7908L181.073 84.9409L180.917 84.6807L173.189 71.2156L161.806 51.3952L147.794 26.9888L147.762 26.9237L100.113 110.16C99.4898 111.256 98.6559 112.217 97.6594 112.988C96.6629 113.76 95.5236 114.327 94.3071 114.657C93.0906 114.986 91.821 115.072 90.5713 114.908C89.3216 114.745 88.1165 114.336 87.0255 113.706C84.8178 112.422 83.2079 110.317 82.5473 107.85C81.8867 105.383 82.2291 102.755 83.4998 100.54L137.725 5.82838C138.738 4.06181 140.198 2.59311 141.959 1.56999C143.72 0.546867 145.719 0.00538661 147.755 0C151.873 0 155.717 2.23118 157.773 5.82188L160.941 11.3315L165.123 18.617L176.962 39.231L195.989 72.3799L204.875 87.8551V87.8616L206.241 90.2424C206.39 90.5026 206.826 91.1401 207.177 91.6604C209.278 94.7828 211.9 98.6727 211.991 103.265" fill="#D4145A"/>
</svg>
