<svg width="367" height="239" viewBox="0 0 367 239" fill="none" xmlns="http://www.w3.org/2000/svg">
<path d="M17.8683 222.186C13.1245 222.186 9.27676 221.053 6.32506 218.786C3.42608 216.467 1.97658 213.252 1.97658 209.141C1.97658 204.871 3.37337 201.603 6.16694 199.337C9.01321 197.017 13.0718 195.858 18.3427 195.858C20.3983 195.858 22.454 196.095 24.5096 196.569C26.5653 196.991 28.331 197.571 29.8069 198.309V197.518C29.8069 193.46 26.4862 191.43 19.8449 191.43C15.2065 191.43 10.9634 192.326 7.11569 194.118V184.552C8.80238 183.761 11.0161 183.129 13.757 182.654C16.4979 182.127 19.3441 181.864 22.2958 181.864C29.3588 181.864 34.6824 183.287 38.2666 186.133C41.9035 188.927 43.722 192.853 43.722 197.914V221H30.6765V217.758C29.2534 219.129 27.4613 220.209 25.3002 221C23.1392 221.791 20.6619 222.186 17.8683 222.186ZM21.9796 213.647C23.6136 213.647 25.1421 213.331 26.5653 212.698C27.9884 212.013 29.0689 211.143 29.8069 210.089V206.769C27.5404 205.24 24.9576 204.476 22.0587 204.476C20.2138 204.476 18.7907 204.871 17.7892 205.662C16.7878 206.452 16.287 207.612 16.287 209.141C16.287 210.564 16.7614 211.671 17.7102 212.461C18.7116 213.252 20.1348 213.647 21.9796 213.647ZM65.6837 222.186C60.4655 222.186 56.5387 220.736 53.9032 217.837C51.3205 214.938 50.0291 211.117 50.0291 206.373V183.05H63.9443V204.792C63.9443 209.167 65.9209 211.354 69.874 211.354C71.6661 211.354 73.3001 210.933 74.7759 210.089C76.2518 209.246 77.4641 208.007 78.4129 206.373V183.05H92.328V221H78.8872V216.889C77.2533 218.628 75.2767 219.946 72.9575 220.842C70.6383 221.738 68.2137 222.186 65.6837 222.186ZM118.033 222.186C114.08 222.186 110.575 221.369 107.517 219.735C104.46 218.048 102.088 215.703 100.402 212.698C98.715 209.641 97.8717 206.11 97.8717 202.104C97.8717 198.151 98.715 194.646 100.402 191.588C102.088 188.479 104.434 186.08 107.438 184.394C110.495 182.707 114.027 181.864 118.033 181.864C120.668 181.864 123.093 182.233 125.307 182.971C127.52 183.708 129.418 184.763 130.999 186.133V162.572H144.914V221H131.474V217.205C127.942 220.526 123.462 222.186 118.033 222.186ZM121.67 211.433C123.778 211.433 125.676 210.906 127.362 209.852C129.049 208.745 130.261 207.269 130.999 205.425V198.704C130.261 196.859 129.049 195.41 127.362 194.356C125.676 193.249 123.778 192.695 121.67 192.695C118.823 192.695 116.531 193.539 114.791 195.225C113.052 196.912 112.182 199.205 112.182 202.104C112.182 205.003 113.052 207.296 114.791 208.982C116.531 210.616 118.823 211.433 121.67 211.433ZM159.465 177.99C157.357 177.99 155.591 177.304 154.168 175.934C152.745 174.564 152.033 172.824 152.033 170.716C152.033 168.66 152.745 166.947 154.168 165.577C155.591 164.154 157.357 163.442 159.465 163.442C161.521 163.442 163.26 164.154 164.683 165.577C166.159 166.947 166.897 168.66 166.897 170.716C166.897 172.771 166.159 174.511 164.683 175.934C163.26 177.304 161.521 177.99 159.465 177.99ZM152.507 183.05H166.423V221H152.507V183.05ZM195.859 222.186C191.168 222.186 187.057 221.343 183.526 219.656C179.994 217.917 177.253 215.545 175.303 212.54C173.406 209.483 172.457 205.978 172.457 202.025C172.457 198.072 173.406 194.593 175.303 191.588C177.253 188.531 179.994 186.159 183.526 184.473C187.057 182.733 191.168 181.864 195.859 181.864C200.551 181.864 204.662 182.733 208.193 184.473C211.725 186.159 214.439 188.531 216.337 191.588C218.287 194.593 219.262 198.072 219.262 202.025C219.262 205.978 218.287 209.483 216.337 212.54C214.439 215.545 211.725 217.917 208.193 219.656C204.662 221.343 200.551 222.186 195.859 222.186ZM195.859 211.354C198.653 211.354 200.867 210.537 202.501 208.903C204.187 207.217 205.031 204.924 205.031 202.025C205.031 199.126 204.187 196.859 202.501 195.225C200.867 193.539 198.653 192.695 195.859 192.695C193.066 192.695 190.826 193.539 189.139 195.225C187.505 196.859 186.688 199.126 186.688 202.025C186.688 204.924 187.505 207.217 189.139 208.903C190.826 210.537 193.066 211.354 195.859 211.354ZM240.052 222.186C235.361 222.186 231.803 220.895 229.379 218.312C227.007 215.676 225.821 212.092 225.821 207.559V192.695H220.444V183.05H225.821V171.665H239.736V183.05H248.433V192.695H239.736V205.662C239.736 207.717 240.105 209.193 240.843 210.089C241.633 210.985 243.004 211.433 244.954 211.433C246.693 211.433 248.433 210.959 250.172 210.01V220.367C248.802 221 247.326 221.448 245.745 221.712C244.216 222.028 242.319 222.186 240.052 222.186ZM267.257 222.186C262.514 222.186 258.666 221.053 255.714 218.786C252.815 216.467 251.366 213.252 251.366 209.141C251.366 204.871 252.762 201.603 255.556 199.337C258.402 197.017 262.461 195.858 267.732 195.858C269.787 195.858 271.843 196.095 273.899 196.569C275.954 196.991 277.72 197.571 279.196 198.309V197.518C279.196 193.46 275.875 191.43 269.234 191.43C264.596 191.43 260.352 192.326 256.505 194.118V184.552C258.191 183.761 260.405 183.129 263.146 182.654C265.887 182.127 268.733 181.864 271.685 181.864C278.748 181.864 284.071 183.287 287.656 186.133C291.293 188.927 293.111 192.853 293.111 197.914V221H280.066V217.758C278.642 219.129 276.85 220.209 274.689 221C272.528 221.791 270.051 222.186 267.257 222.186ZM271.369 213.647C273.003 213.647 274.531 213.331 275.954 212.698C277.377 212.013 278.458 211.143 279.196 210.089V206.769C276.929 205.24 274.347 204.476 271.448 204.476C269.603 204.476 268.18 204.871 267.178 205.662C266.177 206.452 265.676 207.612 265.676 209.141C265.676 210.564 266.15 211.671 267.099 212.461C268.101 213.252 269.524 213.647 271.369 213.647ZM299.813 183.05H313.254V186.845C316.786 183.524 321.266 181.864 326.695 181.864C330.648 181.864 334.153 182.707 337.21 184.394C340.268 186.028 342.639 188.373 344.326 191.43C346.013 194.435 346.856 197.94 346.856 201.946C346.856 205.899 346.013 209.43 344.326 212.54C342.639 215.597 340.268 217.969 337.21 219.656C334.206 221.343 330.701 222.186 326.695 222.186C324.165 222.186 321.74 221.791 319.421 221C317.155 220.262 315.257 219.234 313.729 217.917V238.315H299.813V183.05ZM323.058 211.354C325.904 211.354 328.197 210.511 329.937 208.824C331.676 207.138 332.546 204.845 332.546 201.946C332.546 199.047 331.676 196.78 329.937 195.146C328.197 193.46 325.904 192.616 323.058 192.616C320.95 192.616 319.052 193.17 317.366 194.277C315.679 195.331 314.467 196.78 313.729 198.625V205.345C314.467 207.19 315.679 208.666 317.366 209.773C319.052 210.827 320.95 211.354 323.058 211.354Z" fill="black"/>
<path fill-rule="evenodd" clip-rule="evenodd" d="M256.779 121.566C256.909 127.922 252.644 133.581 246.64 135.02C245.652 135.259 244.639 135.38 243.623 135.38C240.269 135.38 237.726 134.094 236.731 133.589L234.074 132.248C232.373 131.382 230.67 130.519 228.966 129.66C217.189 123.733 209.11 119.705 200.556 115.432C193.128 111.718 185.455 107.882 175.002 102.636C172.319 101.282 170.281 98.92 169.334 96.0673C168.387 93.2146 168.608 90.1029 169.948 87.4126C170.605 86.083 171.519 84.8964 172.636 83.921C173.754 82.9456 175.053 82.2005 176.459 81.7288C177.865 81.257 179.35 81.0677 180.83 81.1718C182.309 81.276 183.754 81.6714 185.08 82.3356C195.51 87.5734 203.183 91.4023 210.603 95.1086L220.374 99.9942L220.19 99.6879L211.093 83.8365L197.692 60.5035L181.197 31.7718L181.159 31.6952L125.066 129.683C124.332 130.973 123.351 132.104 122.178 133.012C121.005 133.921 119.663 134.588 118.231 134.976C116.799 135.364 115.305 135.465 113.833 135.273C112.362 135.08 110.944 134.599 109.659 133.857C107.06 132.345 105.165 129.867 104.387 126.963C103.61 124.059 104.013 120.965 105.509 118.357L169.343 6.8613C170.536 4.78165 172.255 3.05267 174.328 1.84822C176.401 0.643783 178.754 0.00634123 181.151 0C185.999 0 190.524 2.62659 192.944 6.85364L196.674 13.3397L201.597 21.9163L215.534 46.1836L237.933 85.2072L248.394 103.425V103.433L250.002 106.235C250.178 106.542 250.691 107.292 251.104 107.905C253.578 111.58 256.664 116.16 256.771 121.566" fill="#D4145A"/>
</svg>
