<svg width="347" height="239" viewBox="0 0 347 239" fill="none" xmlns="http://www.w3.org/2000/svg">
<path d="M18.738 222.186C14.1523 222.186 10.4627 221.026 7.66914 218.707C4.92828 216.335 3.55785 213.146 3.55785 209.141C3.55785 204.924 4.87557 201.682 7.51101 199.416C10.1992 197.097 13.9942 195.937 18.8961 195.937C24.1143 195.937 28.5418 196.991 32.1788 199.099V197.123C32.1788 194.118 31.2563 191.905 29.4115 190.482C27.6194 189.006 24.7732 188.268 20.8727 188.268C18.5535 188.268 16.287 188.505 14.0733 188.979C11.9122 189.401 9.96197 190.007 8.22258 190.798V184.315C9.80385 183.577 11.8595 182.997 14.3895 182.575C16.9195 182.101 19.3705 181.864 21.7424 181.864C28.0148 181.864 32.6531 183.26 35.6575 186.054C38.7146 188.795 40.2432 192.616 40.2432 197.518V221H32.7322V216.731C31.0982 218.523 29.148 219.893 26.8815 220.842C24.6677 221.738 21.9532 222.186 18.738 222.186ZM20.7146 216.098C23.2446 216.098 25.5374 215.597 27.5931 214.596C29.6487 213.594 31.1773 212.198 32.1788 210.406V205.266C28.7527 203.053 24.9313 201.946 20.7146 201.946C17.6575 201.946 15.3646 202.552 13.8361 203.764C12.3602 204.924 11.6223 206.716 11.6223 209.141C11.6223 213.779 14.6531 216.098 20.7146 216.098ZM65.2538 222.186C60.141 222.186 56.2669 220.816 53.6315 218.075C51.0487 215.334 49.7574 211.671 49.7574 207.085V183.05H57.7427V206.769C57.7427 212.83 60.7735 215.861 66.835 215.861C72.1586 215.861 76.3226 213.463 79.327 208.666V183.05H87.3124V221H79.5642V215.624C77.7721 217.89 75.6374 219.551 73.1601 220.605C70.7355 221.659 68.1 222.186 65.2538 222.186ZM115.902 222.186C112.107 222.186 108.681 221.369 105.624 219.735C102.62 218.048 100.248 215.703 98.5085 212.698C96.8218 209.641 95.9785 206.11 95.9785 202.104C95.9785 198.151 96.8218 194.646 98.5085 191.588C100.248 188.531 102.62 186.159 105.624 184.473C108.681 182.733 112.107 181.864 115.902 181.864C122.755 181.864 127.946 183.946 131.478 188.11V162.572H139.463V221H131.715V215.466C129.607 217.785 127.288 219.498 124.758 220.605C122.28 221.659 119.329 222.186 115.902 222.186ZM117.721 215.861C120.989 215.861 123.835 215.018 126.26 213.331C128.737 211.591 130.476 209.272 131.478 206.373V197.834C130.582 194.935 128.869 192.616 126.339 190.877C123.861 189.137 120.989 188.268 117.721 188.268C115.138 188.268 112.793 188.848 110.684 190.007C108.629 191.167 106.995 192.801 105.782 194.909C104.623 197.017 104.043 199.416 104.043 202.104C104.043 204.792 104.623 207.19 105.782 209.299C106.995 211.407 108.629 213.041 110.684 214.201C112.793 215.307 115.138 215.861 117.721 215.861ZM154.419 175.618C153.101 175.618 151.994 175.17 151.098 174.274C150.202 173.378 149.754 172.271 149.754 170.953C149.754 169.635 150.202 168.528 151.098 167.632C151.994 166.736 153.101 166.288 154.419 166.288C155.789 166.288 156.922 166.736 157.818 167.632C158.767 168.528 159.241 169.635 159.241 170.953C159.241 172.271 158.767 173.378 157.818 174.274C156.922 175.17 155.789 175.618 154.419 175.618ZM150.386 183.05H158.53V221H150.386V183.05ZM189.523 222.186C185.253 222.186 181.485 221.395 178.217 219.814C175.001 218.18 172.471 215.861 170.627 212.856C168.834 209.799 167.938 206.215 167.938 202.104C167.938 198.045 168.834 194.487 170.627 191.43C172.419 188.373 174.949 186.028 178.217 184.394C181.485 182.707 185.253 181.864 189.523 181.864C193.792 181.864 197.561 182.707 200.829 184.394C204.097 186.028 206.627 188.373 208.419 191.43C210.264 194.487 211.186 198.045 211.186 202.104C211.186 206.215 210.264 209.799 208.419 212.856C206.627 215.861 204.097 218.18 200.829 219.814C197.561 221.395 193.792 222.186 189.523 222.186ZM189.523 215.861C193.634 215.861 196.902 214.596 199.327 212.066C201.751 209.536 202.963 206.215 202.963 202.104C202.963 197.834 201.751 194.461 199.327 191.984C196.902 189.506 193.634 188.268 189.523 188.268C185.411 188.268 182.143 189.506 179.719 191.984C177.294 194.461 176.082 197.834 176.082 202.104C176.082 206.215 177.294 209.536 179.719 212.066C182.143 214.596 185.411 215.861 189.523 215.861ZM233.329 222.186C229.482 222.186 226.503 221.079 224.395 218.865C222.34 216.652 221.312 213.515 221.312 209.457V189.217H215.54V183.05H221.312V171.665H229.376V183.05H238.706V189.217H229.376V208.903C229.376 211.433 229.851 213.225 230.799 214.28C231.801 215.334 233.593 215.861 236.176 215.861C237.704 215.861 239.233 215.518 240.761 214.833V221.158C238.758 221.843 236.281 222.186 233.329 222.186ZM260.715 222.186C256.129 222.186 252.44 221.026 249.646 218.707C246.905 216.335 245.535 213.146 245.535 209.141C245.535 204.924 246.852 201.682 249.488 199.416C252.176 197.097 255.971 195.937 260.873 195.937C266.091 195.937 270.519 196.991 274.156 199.099V197.123C274.156 194.118 273.233 191.905 271.388 190.482C269.596 189.006 266.75 188.268 262.85 188.268C260.53 188.268 258.264 188.505 256.05 188.979C253.889 189.401 251.939 190.007 250.199 190.798V184.315C251.781 183.577 253.836 182.997 256.366 182.575C258.896 182.101 261.347 181.864 263.719 181.864C269.992 181.864 274.63 183.26 277.634 186.054C280.691 188.795 282.22 192.616 282.22 197.518V221H274.709V216.731C273.075 218.523 271.125 219.893 268.858 220.842C266.645 221.738 263.93 222.186 260.715 222.186ZM262.691 216.098C265.221 216.098 267.514 215.597 269.57 214.596C271.626 213.594 273.154 212.198 274.156 210.406V205.266C270.73 203.053 266.908 201.946 262.691 201.946C259.634 201.946 257.341 202.552 255.813 203.764C254.337 204.924 253.599 206.716 253.599 209.141C253.599 213.779 256.63 216.098 262.691 216.098ZM292.13 183.05H299.878V188.663C303.778 184.13 309.049 181.864 315.69 181.864C319.485 181.864 322.885 182.707 325.89 184.394C328.947 186.08 331.319 188.452 333.005 191.509C334.745 194.514 335.614 198.019 335.614 202.025C335.614 205.978 334.745 209.483 333.005 212.54C331.319 215.597 328.973 217.969 325.969 219.656C322.964 221.343 319.538 222.186 315.69 222.186C312.528 222.186 309.576 221.659 306.835 220.605C304.094 219.551 301.854 217.996 300.115 215.94V238.315H292.13V183.05ZM313.872 215.861C316.455 215.861 318.774 215.307 320.829 214.201C322.938 213.041 324.572 211.407 325.731 209.299C326.944 207.19 327.55 204.766 327.55 202.025C327.55 199.284 326.944 196.886 325.731 194.83C324.572 192.722 322.938 191.114 320.829 190.007C318.774 188.848 316.455 188.268 313.872 188.268C310.657 188.268 307.81 189.111 305.333 190.798C302.908 192.485 301.169 194.804 300.115 197.755V206.294C301.011 209.193 302.724 211.512 305.254 213.252C307.784 214.991 310.657 215.861 313.872 215.861Z" fill="black"/>
<path fill-rule="evenodd" clip-rule="evenodd" d="M251.779 121.566C251.909 127.922 247.644 133.581 241.64 135.02C240.652 135.259 239.639 135.38 238.623 135.38C235.269 135.38 232.726 134.094 231.731 133.589L229.074 132.248C227.373 131.382 225.67 130.519 223.966 129.66C212.189 123.733 204.11 119.705 195.556 115.432C188.128 111.718 180.455 107.882 170.002 102.636C167.319 101.282 165.281 98.92 164.334 96.0673C163.387 93.2146 163.608 90.1029 164.948 87.4126C165.605 86.083 166.519 84.8964 167.636 83.921C168.754 82.9456 170.053 82.2005 171.459 81.7288C172.865 81.257 174.35 81.0677 175.83 81.1718C177.309 81.276 178.754 81.6714 180.08 82.3356C190.51 87.5734 198.183 91.4023 205.603 95.1086L215.374 99.9942L215.19 99.6879L206.093 83.8365L192.692 60.5035L176.197 31.7718L176.159 31.6952L120.066 129.683C119.332 130.973 118.351 132.104 117.178 133.012C116.005 133.921 114.663 134.588 113.231 134.976C111.799 135.364 110.305 135.465 108.833 135.273C107.362 135.08 105.944 134.599 104.659 133.857C102.06 132.345 100.165 129.867 99.3873 126.963C98.6097 124.059 99.0128 120.965 100.509 118.357L164.343 6.8613C165.536 4.78165 167.255 3.05267 169.328 1.84822C171.401 0.643783 173.754 0.00634123 176.151 0C180.999 0 185.524 2.62659 187.944 6.85364L191.674 13.3397L196.597 21.9163L210.534 46.1836L232.933 85.2072L243.394 103.425V103.433L245.002 106.235C245.178 106.542 245.691 107.292 246.104 107.905C248.578 111.58 251.664 116.16 251.771 121.566" fill="#D4145A"/>
</svg>
