<svg width="496" height="87" viewBox="0 0 496 87" fill="none" xmlns="http://www.w3.org/2000/svg">
<path d="M4.27253 81.169C2.66599 78.7473 -1.24707 75.1731 5.6859 69.5517C16.4653 65.6832 20.3309 66.9078 21.623 67.9789C23.0045 68.6652 26.312 70.6268 28.4895 72.9827C31.2114 75.9275 27.9913 83.7564 18.6457 84.442C11.1692 84.9906 10.7451 84.442 4.27253 81.169Z" fill="#9D0B40" stroke="#9D0B40" stroke-width="0.374755"/>
<path d="M20.2639 75.0745C23.5946 74.9569 22.2058 74.5156 30.2773 43.3834C32.9342 44.0906 36.3707 44.4043 35.8877 45.1127C35.8877 45.1127 28.9206 78.3332 28.391 77.2239C27.8614 76.1147 16.9332 75.1922 20.2639 75.0745Z" fill="#9D0B40" stroke="#9D0B40" stroke-width="0.404156"/>
<path d="M28.1157 43.3582L36.0428 44.9113L50.7283 47.2207L52.069 40.8605L29.4564 36.998L28.1157 43.3582Z" fill="#9D0B40" stroke="#9D0B40" stroke-width="0.374755"/>
<path d="M30.53 30.1452L32.1996 22.7146L54.7085 26.1571L53.039 33.5876L30.53 30.1452Z" fill="#9D0B40" stroke="#9D0B40" stroke-width="0.374755"/>
<path d="M58.4999 2.50013C51.9999 -0.891331 39.9999 7.49957 36.9999 22.9999L45.9999 25.0006C46.9993 24.1261 46.2514 15.9487 48.4999 14C51.3106 11.5641 53.41 12 54.9999 12C60.9031 12 67.5032 34.569 72.4999 44.9997L82.4999 40.9997L80.4999 36.4997L77.8855 30.4997C77.8855 30.4997 69.9998 8.50037 58.4999 2.50013Z" fill="#9D0B40" stroke="#9D0B40" stroke-width="0.374755"/>
<path d="M88.6086 58.8657L78.1086 62.9281L85.7578 81.4715L102.609 86.3657L93.1086 67.8657L88.6086 58.8657Z" fill="#9D0B40" stroke="#9D0B40" stroke-width="0.463585"/>
<path d="M72.3905 67.0398L70 60.9969L93.0162 51L95.1086 56.5797L72.3905 67.0398Z" fill="#9D0B40" stroke="#9D0B40" stroke-width="0.464974"/>
<path d="M64.0196 49.12L67.2641 55.9121L89.5558 45.9338L86.5836 39.1401L64.0196 49.12Z" fill="#9D0B40" stroke="#9D0B40" stroke-width="0.424606"/>
<path d="M115.408 71.864C111.376 71.864 108.472 70.544 106.696 67.904C104.92 65.216 104.032 61.64 104.032 57.176V35H116.416V55.592C116.416 57.608 116.68 59.072 117.208 59.984C117.784 60.896 118.888 61.352 120.52 61.352C121.576 61.352 122.488 61.16 123.256 60.776C124.072 60.344 124.96 59.48 125.92 58.184V35H138.304V71H128.224L127.36 66.248H127.072C125.536 67.976 123.832 69.344 121.96 70.352C120.136 71.36 117.952 71.864 115.408 71.864ZM161.244 71.864C158.94 71.864 156.852 71.432 154.98 70.568C153.156 69.704 151.596 68.456 150.3 66.824C149.004 65.192 147.996 63.224 147.276 60.92C146.556 58.568 146.196 55.928 146.196 53C146.196 50.072 146.628 47.432 147.492 45.08C148.356 42.728 149.484 40.76 150.876 39.176C152.268 37.544 153.876 36.296 155.7 35.432C157.524 34.568 159.372 34.136 161.244 34.136C163.164 34.136 164.772 34.448 166.068 35.072C167.364 35.696 168.564 36.584 169.668 37.736H169.956L169.38 32.552V20.888H181.764V71H171.684L170.82 67.688H170.532C169.284 68.936 167.82 69.944 166.14 70.712C164.508 71.48 162.876 71.864 161.244 71.864ZM164.484 61.784C165.492 61.784 166.38 61.616 167.148 61.28C167.964 60.896 168.708 60.2 169.38 59.192V45.944C168.66 45.272 167.892 44.816 167.076 44.576C166.308 44.336 165.492 44.216 164.628 44.216C163.092 44.216 161.748 44.864 160.596 46.16C159.444 47.456 158.868 49.688 158.868 52.856C158.868 56.12 159.348 58.424 160.308 59.768C161.316 61.112 162.708 61.784 164.484 61.784ZM205.352 71V44.648H191.672V35H217.736V71H205.352ZM211.112 30.104C208.808 30.104 206.912 29.456 205.424 28.16C203.936 26.816 203.192 25.064 203.192 22.904C203.192 20.744 203.936 18.992 205.424 17.648C206.912 16.256 208.808 15.56 211.112 15.56C213.416 15.56 215.312 16.256 216.8 17.648C218.288 18.992 219.032 20.744 219.032 22.904C219.032 25.064 218.288 26.816 216.8 28.16C215.312 29.456 213.416 30.104 211.112 30.104ZM251.116 71.864C248.716 71.864 246.388 71.456 244.132 70.64C241.924 69.776 239.956 68.552 238.228 66.968C236.5 65.336 235.108 63.344 234.052 60.992C233.044 58.64 232.54 55.976 232.54 53C232.54 50.024 233.044 47.36 234.052 45.008C235.108 42.656 236.5 40.688 238.228 39.104C239.956 37.472 241.924 36.248 244.132 35.432C246.388 34.568 248.716 34.136 251.116 34.136C253.468 34.136 255.748 34.568 257.956 35.432C260.212 36.248 262.204 37.472 263.932 39.104C265.66 40.688 267.052 42.656 268.108 45.008C269.164 47.36 269.692 50.024 269.692 53C269.692 55.976 269.164 58.64 268.108 60.992C267.052 63.344 265.66 65.336 263.932 66.968C262.204 68.552 260.212 69.776 257.956 70.64C255.748 71.456 253.468 71.864 251.116 71.864ZM251.116 61.928C253.228 61.928 254.74 61.136 255.652 59.552C256.564 57.92 257.02 55.736 257.02 53C257.02 50.264 256.564 48.104 255.652 46.52C254.74 44.888 253.228 44.072 251.116 44.072C249.004 44.072 247.492 44.888 246.58 46.52C245.668 48.104 245.212 50.264 245.212 53C245.212 55.736 245.668 57.92 246.58 59.552C247.492 61.136 249.004 61.928 251.116 61.928ZM288.096 71V34.568H274.632V24.2H313.944V34.568H300.48V71H288.096ZM331.411 71.864C329.539 71.864 327.883 71.576 326.443 71C325.003 70.376 323.779 69.56 322.771 68.552C321.763 67.544 320.995 66.368 320.467 65.024C319.987 63.68 319.747 62.264 319.747 60.776C319.747 58.76 320.155 56.984 320.971 55.448C321.835 53.912 323.155 52.616 324.931 51.56C326.755 50.456 329.107 49.592 331.987 48.968C334.867 48.344 338.371 47.912 342.499 47.672C342.259 46.376 341.539 45.44 340.339 44.864C339.187 44.24 337.603 43.928 335.587 43.928C334.051 43.928 332.467 44.192 330.835 44.72C329.251 45.2 327.379 45.944 325.219 46.952L320.899 38.888C323.635 37.352 326.419 36.176 329.251 35.36C332.083 34.544 335.011 34.136 338.035 34.136C340.579 34.136 342.883 34.472 344.947 35.144C347.059 35.768 348.835 36.776 350.275 38.168C351.763 39.512 352.891 41.264 353.659 43.424C354.475 45.536 354.883 48.056 354.883 50.984V71H344.803L343.939 67.256H343.651C341.875 68.552 339.955 69.656 337.891 70.568C335.827 71.432 333.667 71.864 331.411 71.864ZM335.443 62.36C336.883 62.36 338.179 62.096 339.331 61.568C340.483 60.992 341.539 60.344 342.499 59.624V55.016C340.291 55.112 338.467 55.304 337.027 55.592C335.635 55.832 334.531 56.168 333.715 56.6C332.899 57.032 332.323 57.512 331.987 58.04C331.699 58.568 331.555 59.144 331.555 59.768C331.555 61.496 332.851 62.36 335.443 62.36ZM363.639 83.672V35H373.719L374.583 38.312H374.871C376.263 37.064 377.823 36.056 379.551 35.288C381.327 34.52 383.127 34.136 384.951 34.136C387.111 34.136 389.079 34.568 390.855 35.432C392.631 36.296 394.119 37.52 395.319 39.104C396.567 40.688 397.527 42.608 398.199 44.864C398.871 47.12 399.207 49.64 399.207 52.424C399.207 55.544 398.775 58.304 397.911 60.704C397.047 63.104 395.895 65.144 394.455 66.824C393.063 68.456 391.431 69.704 389.559 70.568C387.735 71.432 385.839 71.864 383.871 71.864C380.847 71.864 378.135 70.664 375.735 68.264H375.447L376.023 73.736V83.672H363.639ZM380.919 61.784C381.687 61.784 382.407 61.64 383.079 61.352C383.751 61.016 384.327 60.488 384.807 59.768C385.335 59.048 385.743 58.112 386.031 56.96C386.367 55.76 386.535 54.296 386.535 52.568C386.535 49.592 386.079 47.456 385.167 46.16C384.303 44.864 382.983 44.216 381.207 44.216C380.247 44.216 379.359 44.408 378.543 44.792C377.727 45.176 376.887 45.848 376.023 46.808V60.056C376.791 60.728 377.583 61.184 378.399 61.424C379.263 61.664 380.103 61.784 380.919 61.784Z" fill="black"/>
</svg>
